<svg width="20" height="21" viewBox="0 0 20 21" fill="none" xmlns="http://www.w3.org/2000/svg">
<path d="M17.475 19.8375L11.4083 13.5375C10.8667 13.9875 10.2438 14.3437 9.53958 14.6062C8.83542 14.8687 8.08611 15 7.29167 15C5.32361 15 3.65817 14.2924 2.29533 12.8771C0.931778 11.4611 0.25 9.73125 0.25 7.6875C0.25 5.64375 0.931778 3.91388 2.29533 2.49788C3.65817 1.08263 5.32361 0.375 7.29167 0.375C9.25972 0.375 10.9255 1.08263 12.2891 2.49788C13.6519 3.91388 14.3333 5.64375 14.3333 7.6875C14.3333 8.5125 14.2069 9.29062 13.9542 10.0219C13.7014 10.7531 13.3583 11.4 12.925 11.9625L19.0188 18.2906C19.2174 18.4969 19.3167 18.75 19.3167 19.05C19.3167 19.35 19.2083 19.6125 18.9917 19.8375C18.7931 20.0437 18.5403 20.1469 18.2333 20.1469C17.9264 20.1469 17.6736 20.0437 17.475 19.8375V19.8375ZM7.29167 12.75C8.64583 12.75 9.79706 12.258 10.7453 11.274C11.6929 10.2892 12.1667 9.09375 12.1667 7.6875C12.1667 6.28125 11.6929 5.08575 10.7453 4.101C9.79706 3.117 8.64583 2.625 7.29167 2.625C5.9375 2.625 4.78628 3.117 3.838 4.101C2.89044 5.08575 2.41667 6.28125 2.41667 7.6875C2.41667 9.09375 2.89044 10.2892 3.838 11.274C4.78628 12.258 5.9375 12.75 7.29167 12.75Z" fill="#FAFAFA"/>
</svg>
